<svg width="34" height="34" viewBox="0 0 34 34" fill="none" xmlns="http://www.w3.org/2000/svg">
<g id="Frame">
<path id="Selection" d="M16.9844 2.25592C17.1098 2.23111 17.1488 2.30601 17.2813 2.33966L17.5313 2.39145L18.1406 2.64437C19.0467 3.09407 19.9245 3.60177 20.8125 4.08573L22.6406 5.09353L25.3125 6.55381L28.4063 8.25104L29.9375 9.0943L30.9844 9.66806L31.8594 10.1691L32.1094 10.3291L32.2656 10.4792C32.4866 10.6985 32.4753 10.6977 32.6228 10.9599C32.6739 11.0508 32.7253 11.1412 32.762 11.2391C32.8158 11.3825 32.8019 11.4275 32.8152 11.5647L32.8594 12.0609L32.875 12.278V12.7898L32.8466 13.1774L32.8845 13.441C32.8806 13.4916 32.8513 13.5648 32.8303 13.6116C32.7289 13.8393 32.6183 13.8935 32.375 13.8907C32.1995 13.8886 32.0842 13.7935 31.9375 13.7112L31.4219 13.4451L30.9063 13.1667L28.9688 12.1123L27.8125 11.4765L24.5781 9.70171L20.9531 7.72117L19.8906 7.12757L19.125 6.71322C18.7258 6.49349 18.1991 6.18909 17.7656 6.06643C17.4833 5.98641 17.1984 5.96346 16.9063 5.96672C16.3164 5.9737 15.7722 6.24833 15.2656 6.52016L13.2031 7.65216L9.40625 9.73707L7.07813 11.0043L5.28125 11.9953L3.125 13.1726L2.54688 13.4835L2.17188 13.6629L1.92188 13.8152C1.69375 13.9427 1.37797 13.9232 1.24078 13.6736C1.19531 13.5908 1.18766 13.502 1.1875 13.41L1.17188 12.2005L1.18688 12.0144V11.8128L1.21719 11.4562C1.30047 11.109 1.47078 10.7991 1.72141 10.5426C1.89266 10.3674 2.165 10.1905 2.375 10.0598L3.57813 9.38894L4.79688 8.71361L7.10938 7.45057L8.32813 6.78378L9.35938 6.21266L11.3281 5.14005L12.5 4.49139L14.6406 3.32574C15.118 3.06895 15.5841 2.78502 16.0781 2.56001C16.2038 2.50264 16.4292 2.42185 16.5625 2.38711L16.8125 2.33253L16.9844 2.25592ZM13.7188 31.8322H6.25H4.26563C4.23219 31.8322 4.17641 31.8358 4.14859 31.8164C4.11328 31.7917 4.06391 31.6201 4.03922 31.5686C3.99531 31.4773 3.95969 31.454 3.91719 31.336C3.84578 31.138 3.86031 30.9959 3.85938 30.7932L3.84375 30.5451V22.6521V19.7368V18.2792L3.85938 18.0466V16.2633L3.87438 16.0772V15.8911C3.87531 15.7102 3.90359 15.6531 3.94297 15.488C4.00734 15.2174 4.0875 14.9278 4.25063 14.6971C4.48422 14.3668 4.79953 14.1562 5.14063 13.9528L6.3125 13.3036L7.25 12.7919L8.78125 11.9476L10.4219 11.0482L11.7188 10.3349L14.9063 8.58258C15.2783 8.38238 15.6441 8.17133 16.0313 8.00029C16.2144 7.91935 16.3963 7.83328 16.5938 7.79142C16.7581 7.75653 17.0142 7.7635 17.1875 7.76552C17.6141 7.77048 18.1747 8.07271 18.5469 8.27244L19.75 8.92373L20.4375 9.29419L22.2969 10.322L23.2969 10.8776L25.1875 11.9037L26.25 12.4973L27.6719 13.2795L28.9531 13.9985C29.2781 14.2009 29.3855 14.2634 29.645 14.5575C29.7109 14.6323 29.7548 14.672 29.8111 14.7591C29.8617 14.8377 29.8894 14.9221 29.9263 15.0072C29.9939 15.1634 30.065 15.3209 30.1014 15.488C30.1308 15.6221 30.1248 15.7404 30.125 15.8756L30.1406 16.1392V21.7993V27.5213V30.3746L30.125 30.6072C30.1247 30.8162 30.1378 30.9801 30.0555 31.1809C29.9895 31.3414 29.8725 31.48 29.7527 31.6022C29.5869 31.7711 29.6673 31.8319 29.4688 31.8322H20.2813C20.2988 31.7359 20.3508 31.63 20.3875 31.5376L20.5148 31.1809L21.0716 29.7543L21.8406 27.8159L22.8469 25.2728C22.983 24.9349 23.3119 24.1254 23.4017 23.8151C23.458 23.6205 23.5055 23.3516 23.3689 23.1794C23.2103 22.9792 22.8989 22.9317 22.6563 22.9313L22.3594 22.9157H19.7188L19.5313 22.9299C19.2628 22.9482 18.9986 22.9513 18.7656 23.1074C18.472 23.3042 18.3473 23.6399 18.2278 23.9547L17.6688 25.4744L17.3117 26.4203C17.2402 26.6145 17.2375 26.7563 16.9844 26.7453C16.7745 26.7362 16.7639 26.5986 16.7039 26.4358L16.3467 25.4899L15.7722 23.9392C15.6691 23.6678 15.5353 23.3261 15.2969 23.1468C15.0422 22.9554 14.7858 22.9503 14.4844 22.9299L14.2969 22.9157H11.6094L11.375 22.9313H11.3125C11.0617 22.9342 10.7011 23.0077 10.5863 23.2569C10.5422 23.3523 10.5458 23.4193 10.5469 23.5205C10.5498 23.7632 10.74 24.2149 10.8344 24.4509L11.4248 25.9551L12.9814 29.8938L13.5678 31.429L13.7188 31.8322ZM9.375 15.5669C9.07516 15.6126 8.54891 15.5422 8.14063 15.6132C7.83609 15.6663 7.64109 15.7944 7.64063 16.1237V16.2013C7.64266 16.3725 7.71297 16.5533 7.77047 16.713L8.1 17.5659L8.99375 19.8299C9.12578 20.1575 9.30906 20.6998 9.5475 20.9464C9.80594 21.2137 10.1011 21.2419 10.4531 21.2571L10.625 21.272H12.0469H13.4531L13.6875 21.2565H13.75C14.0283 21.2533 14.3831 21.1788 14.4828 20.8843C14.5067 20.8136 14.5008 20.6978 14.5 20.6207C14.498 20.452 14.4139 20.2093 14.3594 20.047L14.0264 19.1166L13.3133 17.1472C13.1959 16.8287 13.02 16.283 12.8425 16.0152C12.6236 15.6846 12.2553 15.5816 11.875 15.581H11.1094L10.8438 15.5669H10.1406H9.375ZM23.0469 15.5669L22.0938 15.581L21.9375 15.5954C21.5606 15.63 21.3163 15.744 21.1164 16.0772C20.9647 16.3304 20.7542 16.9524 20.6455 17.2557L19.9736 19.1166L19.6966 19.8919C19.622 20.0893 19.5025 20.4301 19.5 20.6362C19.4989 20.7314 19.4934 20.8251 19.5302 20.9154C19.6405 21.187 20.0019 21.2553 20.2656 21.2565L20.5781 21.272H23.3438L23.5469 21.2571C23.8647 21.2433 24.1973 21.2122 24.4361 20.976C24.5659 20.8476 24.6439 20.6886 24.7228 20.5277L25.0688 19.6903L25.9625 17.4263L26.2452 16.6975C26.3159 16.5007 26.3775 16.3199 26.375 16.1082C26.3697 15.6685 25.9023 15.5816 25.5469 15.581H24.7969L24.5313 15.5669H23.8125H23.0469Z" fill="#2D0C5C" stroke="white" stroke-width="1.5963"/>
</g>
</svg>
